<?xml version="1.0" encoding="UTF-8" standalone="no"?>
<!-- Created with Inkscape (http://www.inkscape.org/) -->

<svg
   xmlns:dc="http://purl.org/dc/elements/1.1/"
   xmlns:cc="http://creativecommons.org/ns#"
   xmlns:rdf="http://www.w3.org/1999/02/22-rdf-syntax-ns#"
   xmlns:svg="http://www.w3.org/2000/svg"
   xmlns="http://www.w3.org/2000/svg"
   xmlns:sodipodi="http://sodipodi.sourceforge.net/DTD/sodipodi-0.dtd"
   xmlns:inkscape="http://www.inkscape.org/namespaces/inkscape"
   width="800"
   height="800"
   viewBox="0 0 211.66666 211.66667"
   version="1.1"
   id="svg8"
   inkscape:version="0.92.3 (2405546, 2018-03-11)"
   sodipodi:docname="rucvm401.svg"
   inkscape:export-filename="/home/usuario7/rucvm401.png"
   inkscape:export-xdpi="96"
   inkscape:export-ydpi="96">
  <defs
     id="defs2" />
  <sodipodi:namedview
     id="base"
     pagecolor="#ffffff"
     bordercolor="#666666"
     borderopacity="1.0"
     inkscape:pageopacity="0.0"
     inkscape:pageshadow="2"
     inkscape:zoom="0.49497475"
     inkscape:cx="377.00925"
     inkscape:cy="327.42269"
     inkscape:document-units="mm"
     inkscape:current-layer="layer1"
     showgrid="false"
     units="px"
     inkscape:window-width="1024"
     inkscape:window-height="743"
     inkscape:window-x="0"
     inkscape:window-y="25"
     inkscape:window-maximized="1" />
  <metadata
     id="metadata5">
    <rdf:RDF>
      <cc:Work
         rdf:about="">
        <dc:format>image/svg+xml</dc:format>
        <dc:type
           rdf:resource="http://purl.org/dc/dcmitype/StillImage" />
        <dc:title></dc:title>
      </cc:Work>
    </rdf:RDF>
  </metadata>
  <g
     inkscape:label="Capa 1"
     inkscape:groupmode="layer"
     id="layer1"
     transform="translate(0,-85.333317)">
    <g
       id="g826"
       transform="matrix(1.6967964,0,0,1.6967964,78.185571,-206.39626)">
      <path
         style="fill:#cb4c4b;stroke-width:0.26458332"
         d="m -42.755588,295.85254 c 0.556185,-0.55618 0.649432,-0.89615 0.649432,-2.3677 0,-6.08501 2.087857,-13.8 5.295651,-19.56836 2.871339,-5.16332 6.766944,-9.75893 11.240807,-13.26066 1.984036,-1.55292 5.37433,-3.77046 5.979199,-3.9109 0.148606,-0.0345 0.54088,0.77822 0.87172,1.80605 0.828731,2.57465 2.760343,6.14286 4.860756,8.97913 2.922516,3.94639 11.6261864,12.28917 13.99954341,13.41907 0.94407299,0.44945 1.79571699,0.0429 4.51366699,-2.15451 4.776875,-3.86209 9.7371456,-9.10836 12.4959956,-13.2165 1.29284,-1.92513 3.242,-5.94275 3.73827,-7.70535 0.18438,-0.65485 0.36628,-1.23322 0.40422,-1.28529 0.0379,-0.0521 0.95452,0.45727 2.03684,1.13185 l 1.96784,1.2265 0.13123,7.33482 c 0.12188,6.81245 0.18009,7.52044 0.81738,9.94116 3.18244,12.08824 13.61902,20.2794 25.83855,20.2794 12.10601,0 22.37775,-7.95445 25.61977,-19.83999 l 0.68645,-2.51658 0.0908,-18.60092 c 0.10128,-20.75459 0.12908,-20.38173 -1.67712,-22.49187 -1.41305,-1.65083 -2.76698,-2.26858 -5.00843,-2.28517 -1.01864,-0.008 -2.107,0.0795 -2.41856,0.19341 -0.55404,0.20257 -0.56881,0.14153 -0.67251,-2.77812 -0.12025,-3.38554 -0.58418,-4.77527 -2.079,-6.2278 -1.75175,-1.70218 -3.8515,-2.28447 -6.52189,-1.80863 l -1.10863,0.19755 -0.15988,-1.01276 c -0.44271,-2.80435 -1.74565,-4.69574 -3.97286,-5.76715 -1.50332,-0.72318 -4.39699,-0.6975 -5.82083,0.0517 -2.2397,1.17841 -3.83646,3.59005 -3.83646,5.79432 0,0.49103 -0.11131,0.89278 -0.24736,0.89278 -0.8307,0 -1.61845,-0.63099 -2.17235,-1.74005 -0.80113,-1.60413 -2.34189,-3.34605 -3.89279,-4.40105 -0.67547,-0.45949 -1.30535,-0.94986 -1.39974,-1.08971 -0.0944,-0.13984 -0.18337,-2.12458 -0.19773,-4.41052 -0.0397,-6.31579 -1.0228,-10.82932 -3.4965,-16.05252 -3.27484,-6.91483 -9.66164,-13.40998 -16.58975,-16.8712 -5.458565,-2.72705 -11.7815136,-4.0665 -17.77669659,-3.7658 -8.16224701,0.40939 -15.09312141,3.04369 -21.44325341,8.15018 -6.287098,5.05581 -10.322375,11.45544 -12.487842,19.80475 -0.703535,2.7126 -0.804855,3.60395 -0.9264,8.14995 l -0.13647,5.10424 -1.089996,0.75026 c -4.967703,3.41934 -6.977166,9.75399 -4.811409,15.16753 0.735846,1.83933 0.814206,2.33968 0.427047,2.72684 -0.420549,0.42055 -1.598928,3.78121 -2.008429,5.72792 -0.938043,4.4593 -0.04112,10.09186 2.238705,14.05881 1.823342,3.17265 5.014338,6.34029 7.82659,7.7693 0.727604,0.36972 1.366702,0.71161 1.420217,0.75974 0.05352,0.0481 -0.819603,1.11808 -1.940261,2.37766 -7.865268,8.84022 -11.91105,18.40127 -12.493523,29.52488 -0.160385,3.0629 -0.157144,3.08608 0.527089,3.77031 0.866552,0.86656 1.866988,0.88097 2.708921,0.039 z m 91.484851,-3.56782 c -9.39213,-1.49715 -16.76531,-8.50164 -18.74583,-17.80848 -0.30189,-1.41863 -0.3824,-4.66446 -0.39216,-15.81042 -0.008,-9.22498 0.0819,-14.20126 0.26282,-14.53935 0.77473,-1.44761 3.12024,-1.81705 4.42343,-0.69672 l 0.74236,0.63818 0.13229,9.93818 c 0.15264,11.4666 0.019,10.90535 2.65943,11.16432 4.19722,0.41166 7.41797,2.14272 9.66447,5.19437 1.43332,1.94703 2.19895,3.9818 2.50372,6.65403 0.28224,2.47465 0.69554,3.07898 2.10572,3.07898 1.53125,0 1.99581,-0.71009 1.9329,-2.95447 -0.0621,-2.21525 -0.59924,-4.18854 -1.85769,-6.82454 -0.71521,-1.4981 -1.45959,-2.49108 -3.08865,-4.12015 -2.40005,-2.40004 -4.79346,-3.77167 -7.90063,-4.52773 l -1.78593,-0.43457 V 259.29 c 0,-1.37851 0.0965,-1.94756 0.33072,-1.95046 0.18191,-0.002 6.90566,-0.032 14.94168,-0.0661 l 14.61095,-0.062 0.58055,-0.58061 c 0.88249,-0.88261 0.77523,-2.12979 -0.25731,-2.9918 l -0.83784,-0.69946 v -8.27542 -8.27542 l 0.89958,-0.89958 c 1.01902,-1.01903 2.04852,-1.16733 3.36773,-0.48514 1.57097,0.81238 1.55352,0.59889 1.55352,19.00479 0,10.35995 -0.10751,17.58304 -0.28072,18.86005 -1.27437,9.39575 -7.77842,16.71474 -16.9172,19.03688 -1.79206,0.45536 -6.79392,0.67462 -8.64791,0.37908 z M 0.22585341,276.08185 c -3.78476401,-3.02416 -10.58201041,-9.82256 -10.58201041,-10.5838 0,-0.1193 5.1277944,-0.21691 11.3950994,-0.21691 H 12.434043 l -0.56474,0.7931 c -1.477351,2.07475 -9.1062356,9.46606 -10.7174076,10.38365 -0.146248,0.0833 -0.56296699,-0.0859 -0.92604199,-0.37604 z M -14.064057,259.67363 c -0.851733,-1.80099 -1.475076,-4.18794 -1.248119,-4.77938 0.183195,-0.4774 4.27118,-1.83977 7.7341444,-2.57751 3.800808,-0.8097 10.402771,-1.00273 14.358593,-0.41981 5.3024016,0.78135 10.6445316,2.39569 10.6445316,3.21668 0,0.6693 -1.31747,4.48365 -1.84403,5.33888 l -0.52944,0.8599 H 0.88129041 -13.289044 Z m -16.314657,-3.50603 c -3.937508,-1.97113 -7.05338,-5.62425 -8.362297,-9.80417 -0.468015,-1.49456 -0.576655,-2.46497 -0.562801,-5.02708 0.01938,-3.58399 0.492388,-5.41207 2.110047,-8.1549 0.499643,-0.84717 0.908442,-1.82534 0.908442,-2.17371 0,-0.34836 -0.445316,-1.44115 -0.989592,-2.42843 -0.923925,-1.67593 -0.989716,-1.94428 -0.991454,-4.044 -0.0015,-1.74815 0.125292,-2.52444 0.569141,-3.48606 0.805015,-1.74411 2.547579,-3.53068 4.211467,-4.31783 0.780973,-0.36946 1.528453,-0.87808 1.661064,-1.13028 0.132612,-0.2522 0.304057,-3.01839 0.38099,-6.14708 0.10868,-4.41978 0.25927,-6.19015 0.675179,-7.9375 1.552652,-6.52315 3.957656,-10.96745 8.491755,-15.69225 9.586026,-9.98922 24.5542564,-12.74234 36.987966,-6.80323 9.44141,4.5098 15.986,12.84865 18.05597,23.00618 0.40107,1.96809 0.59882,4.20375 0.71223,8.05223 0.0907,3.07767 0.27452,5.47609 0.43526,5.67906 0.15303,0.19326 0.82715,0.62953 1.49805,0.9695 1.21668,0.61653 2.61393,1.85138 3.36919,2.97759 0.38041,0.56723 0.33792,0.64879 -0.93335,1.79177 -2.44413,2.19749 -2.55032,2.62384 -2.65301,10.65238 l -0.0889,6.95303 -0.9694,-0.20615 c -2.58647,-0.55004 -5.12201,0.23113 -6.80818,2.09752 -1.66838,1.8467 -1.80384,2.41832 -1.91508,8.08122 -0.055,2.80128 -0.15098,5.09323 -0.21324,5.09323 -0.0623,0 -0.61536,-0.317 -1.22912,-0.70445 -0.61376,-0.38745 -2.2485,-1.20388 -3.63276,-1.81429 -6.63793,-2.92709 -12.2327626,-4.09726 -19.57552959,-4.09428 -9.44680201,0.004 -17.93436841,2.58104 -25.87649041,7.85727 -1.269717,0.84352 -2.446107,1.62261 -2.614205,1.73131 -0.169715,0.10975 -1.348761,-0.32455 -2.651302,-0.9766 z M 6.8252554,242.88883 C 17.819103,240.6331 26.804683,231.44631 28.919043,220.30032 c 1.30044,-6.85535 0.40504,-20.03804 -1.45639,-21.44212 -0.49595,-0.3741 -1.44973,-0.47359 -5.64787,-0.58914 -3.9976,-0.11004 -5.43892,-0.25172 -6.91029,-0.67928 -4.292694,-1.24741 -7.9080096,-3.37655 -11.1242926,-6.55135 -2.60875,-2.57511 -3.06479599,-2.60539 -5.281097,-0.35075 -3.23292,3.28884 -6.806829,5.45379 -11.1619404,6.7615 -2.048242,0.61502 -2.913991,0.71305 -7.307296,0.82736 -4.60751,0.11988 -5.031759,0.17218 -5.619454,0.69266 -0.684575,0.60628 -1.240956,2.44705 -1.689621,5.59006 -0.417256,2.923 -0.337061,12.03879 0.131315,14.92687 2.321656,14.31564 14.978668,24.63418 29.3594444,23.93509 1.455209,-0.0707 3.531375,-0.31032 4.613704,-0.53239 z m -8.714745,-3.55508 c -1.091407,-0.12958 -2.995449,-0.54851 -4.231206,-0.93095 -8.1303214,-2.51615 -13.9789834,-8.48732 -16.5792394,-16.92651 -0.71851,-2.33194 -0.728847,-2.46646 -0.740886,-9.64098 -0.0086,-5.11442 0.08651,-7.60057 0.320066,-8.3684 l 0.332275,-1.09234 4.03335,-0.13157 c 4.743329,-0.15473 7.986374,-0.87927 11.5250524,-2.57485 2.322023,-1.1126 5.317278,-3.08914 7.02344901,-4.63468 0.561771,-0.50889 1.074639,-0.92525 1.139706,-0.92525 0.06507,0 0.97465599,0.72175 2.02130799,1.60389 2.036215,1.71617 5.485281,3.78211 7.8561236,4.70572 3.196984,1.24545 5.555784,1.68724 9.742414,1.82472 l 4.05387,0.13312 0.3078,0.69492 c 0.21105,0.47647 0.30905,3.1486 0.31176,8.50013 0.004,7.32141 -0.033,7.93282 -0.59278,9.86383 -3.38801,11.68821 -14.6757356,19.30577 -26.5230626,17.8992 z m 8.622323,-17.78976 c 0.350951,-0.40829 0.638093,-0.90871 0.638093,-1.11203 0,-0.63378 -0.581049,-1.68077 -1.028025,-1.85239 -0.23495,-0.0902 -2.748902,-0.1621 -5.58655799,-0.15975 -4.96450101,0.004 -5.17686401,0.0258 -5.62239601,0.57565 -0.887629,1.09536 -0.349234,2.97846 0.92837,3.24707 0.326142,0.0686 2.716858,0.10648 5.312704,0.0842 l 4.719717,-0.0404 z m -11.402874,-10.49975 c 0.264003,-0.29173 0.531182,-1.09597 0.599178,-1.80361 0.104288,-1.08533 0.02246,-1.39367 -0.544838,-2.0532 l -0.667555,-0.77608 h -3.434715 c -3.9313534,0 -4.5486024,0.25689 -4.5486024,1.89309 0,1.48195 0.719579,1.94337 3.030683,1.94337 1.7510604,0 2.0465604,0.0742 2.6338054,0.66145 0.830358,0.83036 2.243844,0.89543 2.932044,0.13498 z m 14.148138,-0.12487 c 0.5359396,-0.57048 0.8749526,-0.66081 2.7306056,-0.7276 1.93694,-0.0697 2.16317,-0.13595 2.63719,-0.77215 0.3904,-0.52396 0.47238,-0.90591 0.33182,-1.54589 -0.28924,-1.31691 -1.40847,-1.65738 -5.096025,-1.55023 -2.8045056,0.0815 -3.0597466,0.13303 -3.5284376,0.71247 -0.718873,0.88874 -0.704607,3.27705 0.02392,4.00559 0.754293,0.75429 2.132031,0.69626 2.900921,-0.12219 z m 29.9074156,28.46829 c 0,-13.35751 0.0142,-13.7407 0.5333,-14.40064 0.29332,-0.37289 0.94887,-0.81514 1.45678,-0.98276 0.776,-0.2561 1.08168,-0.22747 1.91409,0.17928 1.95019,0.95295 1.91579,0.67228 1.91625,15.63146 l 4.1e-4,13.29531 h -2.91042 -2.91041 z m 9.78958,-3.4164 c 0,-18.86733 -0.0893,-17.84491 1.6357,-18.73692 1.09132,-0.56434 2.31316,-0.30092 3.27889,0.70692 l 0.77395,0.80768 0.0736,17.18068 0.0736,17.18069 h -2.91783 -2.91783 z m 9.78958,3.65775 c 0,-9.88862 0.0842,-13.66618 0.3161,-14.17505 0.61108,-1.34118 2.89036,-1.89927 4.1509,-1.01636 1.32829,0.93037 1.35384,1.22157 1.35384,15.43504 v 13.23767 h -2.91042 -2.91042 z"
         id="path828"
         inkscape:connector-curvature="0"
         sodipodi:nodetypes="cscscsscccccscscssccsccscccsccssccccssssssccsscccccscccccccccssccscccccscscccccccsscccccsscccccccsscccccccscscccccsssssccccccccscsssccccccscscssssssscccsscccsscssssccccccscccccccccccsssccccccsccccscccscccscccccccccsccscccs" />
    </g>
  </g>
</svg>
